<?xml version="1.0" standalone="no"?>
<!DOCTYPE svg PUBLIC "-//W3C//DTD SVG 20010904//EN"
 "http://www.w3.org/TR/2001/REC-SVG-20010904/DTD/svg10.dtd">
<svg version="1.0" xmlns="http://www.w3.org/2000/svg"
 width="240.000000pt" height="224.000000pt" viewBox="0 0 240.000000 224.000000"
 preserveAspectRatio="xMidYMid meet">

<g transform="translate(0.000000,224.000000) scale(0.100000,-0.100000)"
fill="#000000" stroke="none">
<path d="M651 2090 l-133 -78 38 -24 c89 -56 244 -140 252 -136 24 9 272 154
272 158 -1 9 -270 160 -283 159 -6 -1 -72 -36 -146 -79z"/>
<path d="M1485 2114 c-49 -29 -109 -64 -133 -76 -34 -17 -40 -24 -30 -34 18
-16 259 -154 269 -154 5 0 53 26 106 58 54 31 115 66 136 77 20 11 37 22 37
25 0 8 -262 155 -280 157 -8 1 -55 -23 -105 -53z"/>
<path d="M460 1748 l0 -163 132 -75 c72 -41 137 -76 145 -78 10 -3 13 29 13
156 l0 160 -139 81 c-76 44 -141 81 -145 81 -3 0 -6 -73 -6 -162z"/>
<path d="M995 1831 l-130 -77 -3 -162 c-1 -89 0 -162 3 -162 4 0 67 35 141 78
l134 77 0 163 c0 89 -3 162 -7 162 -5 -1 -66 -36 -138 -79z"/>
<path d="M1250 1748 l0 -163 93 -53 c50 -28 116 -66 145 -83 l52 -31 0 165 0
164 -140 82 c-77 44 -142 81 -145 81 -3 0 -5 -73 -5 -162z"/>
<path d="M1778 1828 l-136 -80 -1 -159 c-1 -104 2 -159 9 -159 6 0 71 35 145
78 l134 77 1 163 c0 89 -3 162 -7 161 -5 0 -70 -37 -145 -81z"/>
<path d="M285 1421 c-66 -38 -128 -76 -138 -83 -17 -12 -6 -21 117 -92 74 -43
137 -79 141 -80 12 -3 284 159 277 165 -4 4 -23 16 -42 27 -19 10 -79 44 -133
75 -54 32 -99 57 -100 57 -1 0 -56 -31 -122 -69z"/>
<path d="M1065 1414 c-72 -41 -134 -79 -138 -83 -5 -5 54 -44 131 -88 l139
-80 134 78 c73 43 135 81 136 86 2 6 -219 139 -267 161 -3 1 -64 -32 -135 -74z"/>
<path d="M1842 1409 l-143 -82 128 -73 c70 -41 137 -77 148 -80 14 -3 63 19
150 70 71 42 134 76 139 76 6 0 2 6 -9 14 -16 11 -267 156 -269 156 -1 0 -65
-37 -144 -81z"/>
<path d="M70 1067 l0 -165 118 -68 c64 -37 127 -73 140 -81 l22 -13 0 164 0
164 -107 62 c-60 35 -123 71 -140 82 l-33 20 0 -165z"/>
<path d="M602 1148 l-142 -82 0 -164 0 -164 33 19 c17 11 83 48 145 83 l112
64 0 163 c0 90 -1 163 -3 163 -1 0 -66 -37 -145 -82z"/>
<path d="M860 1067 l0 -165 108 -62 c59 -35 122 -71 140 -82 l32 -20 0 165 0
164 -117 68 c-65 38 -128 75 -140 83 l-23 14 0 -165z"/>
<path d="M1388 1147 l-138 -81 0 -164 0 -163 58 33 c32 18 96 56 144 83 l86
50 1 163 c1 89 -2 162 -6 161 -5 0 -70 -37 -145 -82z"/>
<path d="M1647 1068 c4 -190 -15 -160 166 -261 l117 -66 0 163 0 164 -137 78
c-75 44 -140 80 -143 82 -4 1 -5 -71 -3 -160z"/>
<path d="M2178 1148 l-138 -80 0 -165 c0 -90 3 -162 8 -160 4 2 67 39 140 81
l132 78 0 164 c0 90 -1 164 -2 164 -2 -1 -65 -37 -140 -82z"/>
<path d="M664 728 c-76 -43 -140 -80 -141 -82 -2 -2 60 -40 138 -85 l140 -82
124 71 c67 39 131 77 140 84 15 11 1 22 -123 93 l-140 80 -138 -79z"/>
<path d="M1468 738 c-68 -39 -131 -76 -141 -83 -16 -11 -1 -22 122 -94 l141
-81 132 76 c73 42 137 79 141 84 5 4 -31 30 -80 57 -48 27 -111 64 -140 81
l-52 31 -123 -71z"/>
<path d="M460 387 l0 -165 138 -81 c77 -45 142 -81 146 -81 3 0 5 73 4 162
l-3 162 -50 29 c-27 17 -75 44 -105 62 -30 18 -72 42 -92 54 l-38 23 0 -165z"/>
<path d="M1252 383 l3 -165 135 -79 c74 -43 139 -79 143 -79 13 0 7 318 -6
329 -7 5 -72 43 -145 84 l-132 76 2 -166z"/>
<path d="M1785 465 l-140 -82 -3 -162 c-2 -88 0 -161 4 -161 8 0 240 132 267
152 16 12 17 30 15 174 l-3 161 -140 -82z"/>
<path d="M993 463 l-133 -77 0 -164 0 -163 58 32 c31 18 93 54 137 79 l80 46
3 162 c1 89 -1 162 -5 162 -5 0 -68 -35 -140 -77z"/>
</g>
</svg>
